<svg width="265" height="40" viewBox="0 0 265 40" fill="none" xmlns="http://www.w3.org/2000/svg">
<g clip-path="url(#clip0_146_1671)">
<path d="M30.1352 32.0185C31.0614 31.2842 31.973 30.5954 32.8474 29.8611C35.6756 27.4899 38.2337 24.8676 40.1187 21.6473C43.2688 16.2662 42.4168 9.25279 38.1312 4.997C36.2338 3.1135 34.0741 2.52014 31.5487 3.49315C31.4643 3.52612 31.3765 3.54771 31.2696 3.58068C30.7283 2.52582 29.9754 1.75287 28.6462 1.56077C30.0463 0.770768 31.4125 0.269484 32.8879 0.0944332C36.0042 -0.27613 38.4869 0.984466 40.5554 3.21012C45.8482 8.90269 46.4739 17.3677 42.1096 24.1094C39.753 27.7502 36.6806 30.7045 33.2965 33.3507C30.0721 35.8708 26.6295 38.0441 22.9809 39.881C22.7502 39.997 22.3754 40.0493 22.1638 39.9402C16.099 36.8438 10.5192 33.0609 5.89259 27.9787C3.73629 25.611 1.82084 23.0489 0.881116 19.9207C-1.0636 13.4506 0.184484 7.66369 4.88759 2.80431C7.78554 -0.189741 11.3148 -0.738764 15.1176 0.929905C15.7816 1.22204 16.4163 1.58351 17.0477 1.90519C16.7506 2.38147 16.4591 2.77931 16.2442 3.21466C16.0292 3.65115 15.8919 4.12629 15.7287 4.56278C14.9364 4.19449 14.161 3.77846 13.3473 3.46474C11.0571 2.58039 8.95822 2.98846 7.21495 4.7026C3.42906 8.42527 2.26875 12.9425 3.44031 18.1054C3.47745 18.2679 3.53484 18.4373 3.626 18.5748C5.87121 21.9735 8.49568 25.0131 11.9091 27.2717C13.4306 28.2788 15.1019 28.9301 16.9295 29.1211C17.1524 29.1438 17.3786 29.1529 17.6025 29.1427C17.7871 29.1347 17.9694 29.0904 18.1754 28.9654C18.0156 28.9131 17.8558 28.8608 17.6971 28.8074C15.3078 28.0037 13.1639 26.7965 11.5309 24.8232C11.2068 24.4311 11.0121 23.8593 10.9356 23.3433C10.8129 22.5067 11.5129 21.9974 12.2321 22.4282C15.3472 24.2913 18.8686 24.8323 22.2978 25.6849C23.2409 25.919 24.211 26.1248 25.0933 26.5158C27.2766 27.4842 28.8004 29.1631 29.8167 31.3251C29.9101 31.5275 30.0024 31.7321 30.1352 32.0185Z" fill="#2C7B10"/>
<path d="M16.2344 22.5965C17.5151 20.4879 18.9264 18.6248 20.9319 17.2926C22.3814 16.3287 23.823 16.3276 25.2141 17.3836C27.7834 19.3341 29.4648 21.9406 30.4821 24.9778C30.7702 25.8372 30.8591 26.7795 30.921 27.6923C30.9481 28.0981 30.6802 28.5232 30.499 29.087C30.176 28.6732 29.9791 28.4084 29.7697 28.1538C28.2572 26.3169 26.3631 25.1381 24.0369 24.6095C21.6465 24.0662 19.2764 23.4251 16.8995 22.8227C16.7037 22.7738 16.5157 22.6931 16.2344 22.5965Z" fill="#2C7B10"/>
<path d="M24.3135 9.3028C24.3068 7.33291 24.8481 5.52783 26.0275 3.95806C26.4012 3.46018 26.9042 3.01574 27.4354 2.69178C28.4708 2.06091 29.5377 2.35645 30.2332 3.35788C30.7689 4.12742 30.9783 5.01064 31.0266 5.92227C31.1448 8.14451 30.6406 10.2065 29.28 11.9899C28.9345 12.4435 28.4765 12.8459 27.9948 13.1494C26.9268 13.8212 25.8193 13.5404 25.1036 12.4969C24.56 11.7046 24.318 10.7214 24.3135 9.3028Z" fill="#2C7B10"/>
<path d="M16.3147 7.09191C16.3068 5.54032 16.4858 4.46615 16.9776 3.46586C17.8948 1.60168 19.6223 1.35388 20.9987 2.89978C22.0228 4.05012 22.4808 5.46417 22.7059 6.95892C22.9254 8.41616 22.8883 9.86431 22.3019 11.2443C21.917 12.1491 21.4162 12.9982 20.3381 13.1528C19.1901 13.3176 18.4294 12.6356 17.8104 11.7762C16.7097 10.2519 16.3462 8.49801 16.3147 7.09191Z" fill="#2C7B10"/>
<path d="M36.0677 15.8593C35.9428 17.72 35.3294 19.3296 34.1399 20.7084C33.8608 21.0324 33.5299 21.3302 33.1731 21.5621C31.5829 22.5953 29.9353 22.0201 29.3951 20.1923C28.784 18.1247 29.2015 16.1639 30.3754 14.4122C30.8435 13.7143 31.494 13.063 32.203 12.6254C33.54 11.799 34.9142 12.2855 35.5388 13.7416C35.8224 14.4009 35.8978 15.1511 36.0677 15.8593Z" fill="#2C7B10"/>
<path d="M17.3367 16.5845C17.0823 17.3961 16.9293 18.2679 16.5455 19.0193C15.9277 20.2287 14.6154 20.5652 13.4709 19.8468C11.2977 18.4839 10.3962 16.4015 10.4559 13.8928C10.4739 13.1233 10.6427 12.2969 10.9702 11.6069C11.5836 10.3145 12.8316 9.97916 14.1079 10.6328C15.3672 11.2773 16.119 12.3912 16.595 13.6655C16.9338 14.5737 17.0823 15.5535 17.3367 16.5845Z" fill="#2C7B10"/>
<path d="M72.312 28.5296C71.064 28.5296 70.008 28.4976 69.144 28.4336C68.312 28.3376 67.208 28.1936 65.832 28.0016L65.784 33.0416C65.752 33.9056 65.736 35.1376 65.736 36.7376C65.736 37.5696 65.496 38.2256 65.016 38.7056C64.568 39.1536 64.056 39.3776 63.48 39.3776C62.424 39.3776 61.64 39.2496 61.128 38.9936C60.616 38.7056 60.36 38.2096 60.36 37.5056C60.36 36.5776 60.44 35.2656 60.6 33.5696C60.952 29.9216 61.128 26.1776 61.128 22.3376C61.128 18.7536 61.016 15.3776 60.792 12.2096C60.824 11.7616 61.048 11.2496 61.464 10.6736C61.912 10.0976 62.472 9.77756 63.144 9.71356C63.88 9.71356 65.048 9.58556 66.648 9.32956C68.312 9.07356 69.576 8.94556 70.44 8.94556C73.064 8.94556 75.096 9.20156 76.536 9.71356C78.008 10.2256 79.48 11.0736 80.952 12.2576C82.552 14.7536 83.352 16.5136 83.352 17.5376C83.352 19.6816 82.92 21.5856 82.056 23.2496C81.192 24.9136 79.928 26.2096 78.264 27.1376C76.6 28.0656 74.616 28.5296 72.312 28.5296ZM71.208 13.0256C70.184 13.0256 69.288 13.0896 68.52 13.2176C67.784 13.3136 66.888 13.4896 65.832 13.7456C65.96 16.6896 66.024 18.8336 66.024 20.1776C66.024 21.5536 65.976 22.7056 65.88 23.6336C67.256 23.9216 68.344 24.1136 69.144 24.2096C69.944 24.2736 70.84 24.3056 71.832 24.3056C74.2 24.3056 75.864 23.6976 76.824 22.4816C77.816 21.2336 78.312 19.7936 78.312 18.1616C78.312 17.6816 78.168 17.0896 77.88 16.3856C77.592 15.6816 77.336 15.2176 77.112 14.9936C76.248 14.2256 75.4 13.7136 74.568 13.4576C73.768 13.1696 72.648 13.0256 71.208 13.0256ZM85.1288 29.2016C85.1288 27.9856 85.3528 26.7696 85.8008 25.5536C86.2488 24.3056 86.8408 23.1696 87.5768 22.1456C88.3128 21.1216 89.4808 20.2896 91.0808 19.6496C92.6808 18.9776 94.1048 18.6416 95.3528 18.6416C96.6328 18.6416 97.9288 18.8176 99.2408 19.1696C100.585 19.5216 101.513 20.0656 102.025 20.8016C103.209 22.4656 103.801 24.0976 103.801 25.6976C103.801 26.5616 103.609 27.2976 103.225 27.9056C102.873 28.5136 102.361 29.1696 101.689 29.8736C101.145 30.4496 100.281 30.8336 99.0968 31.0256C97.9448 31.2176 96.7928 31.3136 95.6407 31.3136C94.9048 31.3136 94.0088 31.2496 92.9528 31.1216C91.8968 30.9616 90.8728 30.7696 89.8808 30.5456C89.9448 31.1856 90.1048 31.8096 90.3608 32.4176C90.6168 33.0256 90.9208 33.4896 91.2728 33.8096C91.9128 34.4176 92.5688 34.8016 93.2408 34.9616C93.9448 35.1216 94.8408 35.2016 95.9288 35.2016C97.0808 35.2016 98.1528 35.0096 99.1448 34.6256C99.9448 34.3376 100.601 34.1936 101.113 34.1936C101.721 34.1936 102.185 34.3856 102.505 34.7696C102.825 35.1216 102.985 35.5856 102.985 36.1616C102.985 36.9616 102.521 37.6176 101.593 38.1296C100.665 38.6416 99.5928 39.0256 98.3768 39.2816C97.1928 39.5056 96.2328 39.6176 95.4968 39.6176C93.9928 39.6176 92.5368 39.3456 91.1288 38.8016C89.7208 38.2576 88.5528 37.4896 87.6248 36.4976C86.8568 35.6016 86.2488 34.5296 85.8008 33.2816C85.3528 32.0016 85.1288 30.6416 85.1288 29.2016ZM95.5928 22.7216C94.8888 22.7216 94.1848 22.8656 93.4808 23.1536C92.7768 23.4096 92.2008 23.7776 91.7528 24.2576C91.1768 24.8656 90.7768 25.3616 90.5528 25.7456C90.3608 26.0976 90.2328 26.5936 90.1688 27.2336C90.9688 27.4896 92.6328 27.6176 95.1608 27.6176C96.5368 27.6176 97.5928 27.4096 98.3288 26.9936C99.0968 26.5776 99.4808 26.0336 99.4808 25.3616C99.4808 24.6896 99.0648 24.0816 98.2328 23.5376C97.4008 22.9936 96.5208 22.7216 95.5928 22.7216ZM108.388 22.7696C107.94 22.7056 107.572 22.5136 107.284 22.1936C107.028 21.8736 106.9 21.4896 106.9 21.0416C106.9 20.8176 106.948 20.5776 107.044 20.3216C107.172 20.0656 107.348 19.8416 107.572 19.6496C107.988 19.2336 109.108 19.0256 110.932 19.0256C111.188 17.7776 111.316 16.5136 111.316 15.2336C111.316 14.7536 111.3 14.3376 111.268 13.9856C111.236 13.6336 111.22 13.3616 111.22 13.1696C111.22 12.4656 111.476 11.9376 111.988 11.5856C112.532 11.2336 113.14 11.0576 113.812 11.0576C114.644 11.0576 115.204 11.2656 115.492 11.6816C115.812 12.0976 115.972 12.8656 115.972 13.9856C115.972 15.6496 115.828 17.2816 115.54 18.8816C116.052 18.8816 116.756 18.8496 117.652 18.7856C118.868 18.7216 119.748 18.6896 120.292 18.6896C120.836 18.6896 121.3 18.8336 121.684 19.1216C122.1 19.3776 122.308 19.7456 122.308 20.2256C122.308 21.4736 121.748 22.2096 120.628 22.4336C119.444 22.7216 117.604 22.8976 115.108 22.9616C115.012 24.2096 114.964 25.5696 114.964 27.0416C114.964 29.3456 115.108 31.2336 115.396 32.7056C115.588 33.7296 115.908 34.4816 116.356 34.9616C116.836 35.4096 117.54 35.6336 118.468 35.6336C119.012 35.6336 119.572 35.4896 120.148 35.2016C120.532 34.9776 120.884 34.8656 121.204 34.8656C121.652 34.8656 121.972 35.0096 122.164 35.2976C122.388 35.5856 122.5 35.9696 122.5 36.4496C122.5 37.3456 122.02 38.0976 121.06 38.7056C120.1 39.2816 118.868 39.5696 117.364 39.5696C116.436 39.5696 115.492 39.3456 114.532 38.8976C113.604 38.4496 112.82 37.8896 112.18 37.2176C112.084 37.1216 111.908 36.7536 111.652 36.1136C111.396 35.4736 111.172 34.7856 110.98 34.0496C110.66 32.5456 110.5 30.4336 110.5 27.7136C110.5 26.5296 110.564 24.9456 110.692 22.9616L108.388 22.7696ZM158.691 11.4416C158.691 13.3616 158.627 16.0496 158.499 19.5056C158.467 20.3376 158.435 21.3456 158.403 22.5296C158.371 23.6816 158.355 25.0256 158.355 26.5616C158.355 31.5856 158.627 35.1856 159.171 37.3616C159.139 38.1616 158.835 38.7376 158.259 39.0896C157.683 39.4096 157.091 39.5696 156.483 39.5696C155.235 39.5696 154.403 39.1216 153.987 38.2256C153.603 37.2976 153.411 36.0016 153.411 34.3376C153.411 28.1616 153.507 22.4496 153.699 17.2016C153.091 18.4176 152.515 19.7616 151.971 21.2336C151.459 22.6736 150.771 24.6896 149.907 27.2816C149.011 30.0976 148.243 32.3216 147.603 33.9536C146.995 35.5856 146.355 36.8496 145.683 37.7456C145.491 37.8416 145.107 38.0336 144.531 38.3216C143.987 38.5776 143.507 38.7056 143.091 38.7056C142.419 38.7056 141.939 38.5936 141.651 38.3696C141.363 38.1456 141.107 37.8256 140.883 37.4096C140.659 36.9936 140.467 36.6576 140.307 36.4016C139.795 35.6336 139.139 34.3696 138.339 32.6096C137.539 30.8496 136.803 29.0096 136.131 27.0896C135.875 26.4176 135.635 25.7776 135.411 25.1696C135.219 24.5296 135.027 23.9376 134.835 23.3936C134.451 22.2416 134.067 21.1696 133.683 20.1776C133.331 19.1536 133.027 18.4336 132.771 18.0176C132.771 19.7136 132.723 21.4096 132.627 23.1056C132.563 25.1536 132.531 26.6256 132.531 27.5216C132.531 28.1616 132.563 29.0256 132.627 30.1136C132.819 33.4416 132.915 35.6336 132.915 36.6896C132.915 37.4576 132.723 38.1136 132.339 38.6576C131.955 39.2016 131.363 39.4736 130.563 39.4736C129.699 39.4736 128.995 39.3136 128.451 38.9936C127.939 38.6416 127.667 38.1296 127.635 37.4576C127.667 36.9136 127.683 36.0336 127.683 34.8176C127.683 32.3536 127.587 28.4336 127.395 23.0576L127.347 21.3296C127.347 20.1136 127.411 18.3856 127.539 16.1456C127.571 15.6016 127.603 14.9616 127.635 14.2256C127.667 13.4896 127.683 12.6896 127.683 11.8256C127.683 10.8336 128.019 10.1136 128.691 9.66556C129.363 9.18556 130.227 8.94556 131.283 8.94556C131.923 8.94556 132.563 9.10556 133.203 9.42556C133.875 9.74556 134.371 10.2096 134.691 10.8176C135.331 12.1296 135.971 13.6816 136.611 15.4736C137.251 17.2336 138.115 19.7456 139.203 23.0096C140.227 26.1136 141.043 28.4816 141.651 30.1136C142.259 31.7136 142.771 32.8016 143.187 33.3776L144.291 30.1136C147.907 19.0736 150.339 12.5456 151.587 10.5296C151.875 10.1456 152.371 9.80956 153.075 9.52156C153.811 9.20156 154.499 9.04156 155.139 9.04156C155.619 9.04156 156.323 9.34556 157.251 9.95356C158.211 10.5296 158.691 11.0256 158.691 11.4416ZM183.393 39.5696C182.305 39.5696 181.473 39.4096 180.897 39.0896C180.321 38.7376 179.697 38.0976 179.025 37.1696C178.193 37.9056 176.945 38.4976 175.281 38.9456C173.649 39.3936 172.241 39.6176 171.057 39.6176C169.105 39.6176 167.521 39.0896 166.305 38.0336C165.121 36.9456 164.529 35.3616 164.529 33.2816C164.529 32.3856 164.769 31.5696 165.249 30.8336C165.761 30.0656 166.417 29.3936 167.217 28.8176C168.113 28.2096 169.169 27.7296 170.385 27.3776C171.633 27.0256 172.769 26.8496 173.793 26.8496C175.521 26.8496 177.057 27.0096 178.401 27.3296V27.2816C178.401 25.5536 177.969 24.3696 177.105 23.7296C176.273 23.0576 174.929 22.7216 173.073 22.7216C171.889 22.7216 170.865 23.2496 170.001 24.3056C169.681 24.7216 169.009 24.9296 167.985 24.9296C167.473 24.9296 167.089 24.7216 166.833 24.3056C166.609 23.8576 166.497 23.4096 166.497 22.9616C166.497 22.0336 166.881 21.2336 167.649 20.5616C168.449 19.8896 169.409 19.3936 170.529 19.0736C171.649 18.7216 172.689 18.5456 173.649 18.5456C174.577 18.5456 175.681 18.7376 176.961 19.1216C178.241 19.5056 179.281 20.0176 180.081 20.6576C181.041 21.4896 181.777 22.4656 182.289 23.5856C182.833 24.6736 183.105 25.8736 183.105 27.1856C183.105 27.6016 183.073 28.2256 183.009 29.0576C182.945 30.0176 182.913 30.8016 182.913 31.4096C182.913 31.6976 182.881 32.0656 182.817 32.5136C182.753 33.0896 182.721 33.5696 182.721 33.9536C182.721 34.3696 182.849 34.7696 183.105 35.1536C183.361 35.5376 183.713 35.8576 184.161 36.1136C184.577 36.3376 184.849 36.5776 184.977 36.8336C185.105 37.0896 185.169 37.3776 185.169 37.6976C185.169 38.0176 184.961 38.4176 184.545 38.8976C184.161 39.3456 183.777 39.5696 183.393 39.5696ZM173.793 30.4016C172.545 30.4016 171.441 30.6416 170.481 31.1216C169.521 31.6016 169.041 32.4496 169.041 33.6656C169.041 34.2736 169.249 34.7856 169.665 35.2016C170.113 35.6176 170.593 35.8256 171.105 35.8256C172.481 35.8256 173.633 35.6816 174.561 35.3936C175.489 35.1056 176.609 34.5776 177.921 33.8096C178.081 33.2976 178.177 32.5776 178.209 31.6496C178.209 31.2976 178.225 31.0256 178.257 30.8336C176.529 30.5456 175.041 30.4016 173.793 30.4016ZM188.778 22.6736C188.33 22.6096 187.962 22.4336 187.674 22.1456C187.418 21.8256 187.29 21.4416 187.29 20.9936C187.29 20.4176 187.514 19.9376 187.962 19.5536C188.058 19.4576 188.218 19.3776 188.442 19.3136C188.666 19.2176 188.842 19.1376 188.97 19.0736C189.674 18.8496 190.122 18.6736 190.314 18.5456C191.05 18.0976 191.546 17.3616 191.802 16.3376C192.058 15.1216 192.218 14.2896 192.282 13.8416C192.346 13.1376 192.57 12.6096 192.954 12.2576C193.37 11.8736 193.882 11.6816 194.49 11.6816C195.29 11.6816 195.85 11.8896 196.17 12.3056C196.49 12.7216 196.65 13.4896 196.65 14.6096C196.65 16.0816 196.298 17.4736 195.594 18.7856C196.042 18.7856 196.778 18.7536 197.802 18.6896C199.338 18.6256 200.41 18.5936 201.018 18.5936C201.562 18.5936 202.026 18.7376 202.41 19.0256C202.826 19.2816 203.034 19.6656 203.034 20.1776C203.034 21.3936 202.474 22.1136 201.354 22.3376C200.33 22.6256 198.474 22.8016 195.786 22.8656C195.562 26.0016 195.45 28.4816 195.45 30.3056C195.45 31.4256 195.498 32.2256 195.594 32.7056C195.786 33.6976 196.106 34.4336 196.554 34.9136C197.034 35.3616 197.738 35.5856 198.666 35.5856C199.114 35.5856 199.786 35.4736 200.682 35.2496C201.226 35.0896 201.658 35.0096 201.978 35.0096C202.394 35.0096 202.714 35.1536 202.938 35.4416C203.162 35.7296 203.274 36.1136 203.274 36.5936C203.274 37.4576 202.714 38.1776 201.594 38.7536C200.474 39.2976 199.146 39.5696 197.61 39.5696C196.65 39.5696 195.706 39.3456 194.778 38.8976C193.85 38.4176 193.066 37.8416 192.426 37.1696C192.298 37.1056 192.106 36.7536 191.85 36.1136C191.626 35.4736 191.402 34.7696 191.178 34.0016C191.082 33.6176 191.034 32.6896 191.034 31.2176C191.034 29.8096 191.13 27.3776 191.322 23.9216L191.37 22.8656C191.146 22.8656 190.73 22.8496 190.122 22.8176C189.514 22.7536 189.066 22.7056 188.778 22.6736ZM223.964 23.3456C223.964 24.0176 223.82 24.5296 223.532 24.8816C223.276 25.2336 222.844 25.4096 222.236 25.4096C221.788 25.4096 221.404 25.2976 221.084 25.0736C220.796 24.8496 220.412 24.4656 219.932 23.9216C219.548 23.5056 219.1 23.1696 218.588 22.9136C218.108 22.6576 217.676 22.5296 217.292 22.5296C215.34 22.5296 213.932 22.9456 213.068 23.7776C212.524 24.3536 212.076 25.1216 211.724 26.0816C211.372 27.0096 211.196 27.9696 211.196 28.9616C211.196 30.4016 211.404 31.5536 211.82 32.4176C212.236 33.2816 212.972 34.0176 214.028 34.6256C214.412 34.8496 214.956 35.0416 215.66 35.2016C216.364 35.3296 216.94 35.3936 217.388 35.3936C217.996 35.3936 218.636 35.2336 219.308 34.9136C219.98 34.5616 220.556 34.1136 221.036 33.5696C221.644 32.8656 222.38 32.5136 223.244 32.5136C223.596 32.5136 223.996 32.6896 224.444 33.0416C224.924 33.3936 225.164 33.8096 225.164 34.2896C225.164 35.2496 224.7 36.1456 223.772 36.9776C222.876 37.7776 221.772 38.4176 220.46 38.8976C219.148 39.3456 217.932 39.5696 216.812 39.5696C214.924 39.5696 213.164 39.1376 211.532 38.2736C209.932 37.4096 208.652 36.2256 207.692 34.7216C206.732 33.1856 206.252 31.4576 206.252 29.5376C206.252 27.8736 206.556 26.2576 207.164 24.6896C207.804 23.1216 208.652 21.8416 209.708 20.8496C210.572 20.0496 211.644 19.4576 212.924 19.0736C214.204 18.6896 215.548 18.4976 216.956 18.4976C217.948 18.4976 218.972 18.6896 220.028 19.0736C221.084 19.4576 221.932 19.9696 222.572 20.6096C223.5 21.5376 223.964 22.4496 223.964 23.3456ZM235.04 8.94556C235.04 9.77756 235.024 10.7536 234.992 11.8736C234.96 12.9616 234.928 13.7936 234.896 14.3696C234.8 16.0016 234.752 17.6336 234.752 19.2656C234.752 20.4816 234.8 21.7456 234.896 23.0576C235.888 21.6176 236.96 20.5616 238.112 19.8896C239.264 19.2176 240.656 18.8816 242.288 18.8816C243.472 18.8816 244.576 19.4096 245.6 20.4656C246.624 21.5216 247.28 22.7536 247.568 24.1616C247.664 25.4096 247.712 26.9296 247.712 28.7216C247.712 29.8736 247.776 31.3776 247.904 33.2336C247.968 33.9376 248.144 34.5936 248.432 35.2016C248.752 35.8096 249.2 36.1136 249.776 36.1136C250.064 36.1136 250.288 36.0976 250.448 36.0656C250.64 36.0336 250.816 36.0176 250.976 36.0176C251.424 36.0176 251.728 36.1296 251.888 36.3536C252.08 36.5776 252.176 36.8976 252.176 37.3136C252.176 38.0816 251.792 38.6576 251.024 39.0416C250.256 39.4256 249.552 39.6176 248.912 39.6176C246.608 39.6176 245.024 38.6576 244.16 36.7376C243.68 35.6496 243.376 34.2416 243.248 32.5136C243.12 30.7536 243.056 28.7056 243.056 26.3696C243.056 24.0656 242.272 22.9136 240.704 22.9136C239.84 22.9136 238.96 23.3776 238.064 24.3056C237.2 25.2016 236.48 26.4016 235.904 27.9056C235.328 29.3776 235.04 30.9136 235.04 32.5136L235.088 37.5056C235.088 38.2096 234.816 38.7376 234.272 39.0896C233.728 39.4096 233.216 39.5696 232.736 39.5696C232.032 39.5696 231.392 39.3616 230.816 38.9456C230.24 38.4976 229.952 38.0016 229.952 37.4576C230.176 35.0576 230.288 31.0416 230.288 25.4096C230.288 24.3856 230.208 20.5936 230.048 14.0336L229.904 9.61756C229.904 8.91356 230.224 8.30556 230.864 7.79356C231.504 7.24956 232.224 6.97756 233.023 6.97756C233.728 6.97756 234.24 7.13756 234.56 7.45756C234.88 7.77756 235.04 8.27356 235.04 8.94556Z" fill="#2C7B10"/>
<path d="M263.434 20.2431C263.102 19.569 262.101 19.3256 261.191 19.6948C260.281 20.0641 259.814 20.9114 260.142 21.583C260.474 22.2571 261.475 22.5005 262.385 22.1313C263.295 21.762 263.762 20.9147 263.434 20.2431Z" fill="#2C7B10"/>
<path d="M251.361 12.391C252.046 12.6295 252.885 12.0487 253.237 11.0906C253.588 10.1324 253.325 9.16257 252.641 8.92403C251.956 8.68549 251.117 9.26627 250.765 10.2244C250.414 11.1826 250.677 12.1524 251.361 12.391Z" fill="#2C7B10"/>
<path d="M259.126 17.5626C259.768 18.4692 261.537 18.3363 263.074 17.2615C264.611 16.1868 265.34 14.5786 264.694 13.6695C264.053 12.763 262.284 12.8959 260.747 13.9707C259.209 15.0454 258.48 16.6535 259.126 17.5626Z" fill="#2C7B10"/>
<path d="M255.275 13.8737C256.098 14.4541 257.567 13.7524 258.552 12.3078C259.539 10.8585 259.67 9.21883 258.842 8.63607C258.019 8.05563 256.55 8.75733 255.565 10.202C254.578 11.6513 254.447 13.2909 255.275 13.8737Z" fill="#2C7B10"/>
</g>
<defs>
<clipPath id="clip0_146_1671">
<rect width="265" height="40" fill="white"/>
</clipPath>
</defs>
</svg>
