<svg width="262" height="278" viewBox="0 0 262 278" fill="none" xmlns="http://www.w3.org/2000/svg">
<path fill-rule="evenodd" clip-rule="evenodd" d="M54.5171 173.282H97.3491V172.452H54.5171V173.282ZM54.5171 153.586V154.416H97.3491V153.586H54.5171Z" fill="#AFFC41"/>
<path fill-rule="evenodd" clip-rule="evenodd" d="M164.651 173.282H207.483V172.452H164.651V173.282ZM164.651 153.586V154.416H207.483V153.586H164.651Z" fill="#AFFC41"/>
<path fill-rule="evenodd" clip-rule="evenodd" d="M84.895 178.461H102.647V177.631H84.895V178.461ZM84.895 149.229H102.647V148.399H84.895V149.229ZM159.354 148.406V149.237H177.105V148.406H159.354ZM159.354 178.461H177.105V177.631H159.354V178.461Z" fill="#AFFC41"/>
<path fill-rule="evenodd" clip-rule="evenodd" d="M111.461 218.737V219.567H128.84C128.84 220.832 129.809 221.86 131 221.86C132.199 221.86 133.161 220.832 133.161 219.567H150.532V218.737H111.461Z" fill="#AFFC41"/>
<path fill-rule="evenodd" clip-rule="evenodd" d="M168.068 78.5022L168.219 77.611C143.605 73.0792 118.395 73.0792 93.7885 77.611L93.9321 78.5022C118.445 73.9856 143.555 73.9856 168.068 78.5022ZM186.107 86.3014C168.147 81.1679 149.548 78.6012 131 78.6088C112.452 78.6012 93.8531 81.1755 75.8934 86.3014C57.9265 91.4197 40.62 99.0972 24.5625 109.029L24.9932 109.806C40.9861 99.9198 58.228 92.2652 76.1159 87.1697C94.0039 82.0591 112.531 79.4999 131 79.5075C149.477 79.4999 168.003 82.0591 185.884 87.1697C203.772 92.2728 221.014 99.9198 237.007 109.806L237.438 109.029C221.38 99.1048 204.074 91.4197 186.107 86.3014ZM46.6927 149.328L47.1234 150.113C72.4335 134.407 101.613 126.098 131 126.151C160.387 126.098 189.566 134.407 214.877 150.113L215.307 149.328C189.868 133.547 160.538 125.191 131 125.245C101.462 125.191 72.1392 133.547 46.6927 149.328Z" fill="#AFFC41"/>
<path fill-rule="evenodd" clip-rule="evenodd" d="M115.352 158.034C119.889 161.042 125.251 162.779 131 162.779C136.743 162.779 142.112 161.042 146.649 158.034C146.756 157.957 146.821 157.851 146.835 157.721C146.85 157.584 146.807 157.462 146.72 157.371L141.99 152.352C141.861 152.215 141.674 152.184 141.516 152.276C138.387 154.058 134.805 155.063 131 155.063C127.196 155.063 123.621 154.05 120.484 152.276C120.326 152.184 120.133 152.215 120.011 152.352L115.28 157.371C115.187 157.462 115.151 157.592 115.165 157.721C115.18 157.851 115.244 157.965 115.352 158.034ZM123.14 149.846C125.538 150.996 128.194 151.636 131 151.636C133.8 151.636 136.463 150.996 138.86 149.846C138.982 149.785 139.069 149.678 139.09 149.534C139.112 149.389 139.076 149.259 138.975 149.153L133.154 142.976C131.969 141.719 130.031 141.719 128.847 142.976L123.025 149.153C122.925 149.252 122.889 149.389 122.911 149.534C122.939 149.671 123.018 149.785 123.14 149.846ZM139.004 176.572C136.413 177.09 133.735 177.357 131 177.357C128.265 177.357 125.588 177.09 122.997 176.572C122.817 176.534 122.652 176.626 122.566 176.793C122.48 176.961 122.509 177.159 122.638 177.296L128.847 183.884C130.031 185.141 131.969 185.141 133.154 183.884L139.363 177.296C139.492 177.159 139.521 176.961 139.435 176.793C139.356 176.626 139.183 176.542 139.004 176.572ZM150.281 161.149L149.642 160.471C149.506 160.326 149.297 160.303 149.132 160.418C143.935 164.081 137.705 166.214 131 166.214C124.296 166.214 118.058 164.081 112.868 160.418C112.703 160.303 112.495 160.326 112.359 160.471L111.72 161.149C110.535 162.406 110.535 164.462 111.72 165.719L116.852 171.164C116.895 171.21 116.938 171.241 116.996 171.263C121.353 172.992 126.076 173.937 131 173.937C135.925 173.937 140.648 172.992 145.005 171.263C145.062 171.241 145.105 171.21 145.148 171.164L150.281 165.719C151.465 164.462 151.465 162.406 150.281 161.149Z" fill="#AAF683"/>
<path fill-rule="evenodd" clip-rule="evenodd" d="M155.133 155.992L138.006 137.819C136.075 135.771 133.534 134.742 130.993 134.742C128.452 134.742 125.918 135.771 123.98 137.819L106.853 155.992C104.922 158.041 103.953 160.738 103.953 163.434C103.953 166.13 104.922 168.819 106.853 170.875L123.98 189.048C125.911 191.097 128.452 192.125 130.993 192.125C133.534 192.125 136.068 191.097 138.006 189.048L155.133 170.875C157.064 168.826 158.033 166.13 158.033 163.434C158.033 160.738 157.071 158.041 155.133 155.992ZM153.425 169.055L136.298 187.228C134.841 188.774 132.917 189.551 131 189.551C129.084 189.551 127.16 188.774 125.703 187.228L108.576 169.055C107.119 167.509 106.387 165.467 106.387 163.434C106.387 161.4 107.119 159.359 108.576 157.813L125.703 139.64C127.16 138.094 129.077 137.317 131 137.317C132.917 137.317 134.833 138.094 136.298 139.64L153.425 157.813C154.882 159.359 155.614 161.4 155.614 163.434C155.614 165.467 154.882 167.501 153.425 169.055Z" fill="#464647"/>
<path d="M147.618 62.4542C145.708 62.4542 144.165 64.0917 144.165 66.1177C144.165 68.1437 145.708 69.7812 147.618 69.7812C149.527 69.7812 151.07 68.1437 151.07 66.1177C151.07 64.0917 149.527 62.4542 147.618 62.4542ZM147.618 63.2539C148.501 63.2539 149.218 63.8937 149.218 64.6858C149.218 65.4779 148.501 66.1177 147.618 66.1177C146.735 66.1177 146.017 65.4779 146.017 64.6858C146.024 63.8937 146.735 63.2539 147.618 63.2539ZM147.618 68.9967C146.117 68.9967 144.904 67.7095 144.904 66.1177C144.904 66.0872 144.904 66.0644 144.904 66.0339C145.235 67.2906 146.326 68.2199 147.618 68.2199C148.91 68.2199 150.001 67.2983 150.331 66.0339C150.331 66.0644 150.331 66.0872 150.331 66.1177C150.338 67.7095 149.118 68.9967 147.618 68.9967ZM114.383 62.4542C112.473 62.4542 110.93 64.0917 110.93 66.1177C110.93 68.1437 112.473 69.7812 114.383 69.7812C116.292 69.7812 117.836 68.1437 117.836 66.1177C117.836 64.0917 116.292 62.4542 114.383 62.4542ZM114.383 63.2539C115.266 63.2539 115.984 63.8937 115.984 64.6858C115.984 65.4779 115.266 66.1177 114.383 66.1177C113.5 66.1177 112.782 65.4779 112.782 64.6858C112.782 63.8937 113.5 63.2539 114.383 63.2539ZM117.096 66.1177C117.096 67.7095 115.883 68.9967 114.383 68.9967C112.883 68.9967 111.67 67.7095 111.67 66.1177C111.67 66.0872 111.67 66.0644 111.67 66.0339C112 67.2906 113.091 68.2199 114.383 68.2199C115.675 68.2199 116.766 67.2983 117.096 66.0339C117.096 66.0568 117.096 66.0872 117.096 66.1177ZM131 56.1401C127.634 56.1401 124.906 59.0343 124.906 62.6065C124.906 66.1786 127.634 69.0729 131 69.0729C134.367 69.0729 137.095 66.1786 137.095 62.6065C137.095 59.0343 134.367 56.1401 131 56.1401ZM131 57.5491C132.558 57.5491 133.821 58.684 133.821 60.0778C133.821 61.4716 132.558 62.6065 131 62.6065C129.443 62.6065 128.179 61.4716 128.179 60.0778C128.179 58.684 129.443 57.5491 131 57.5491ZM135.795 62.6065C135.795 65.417 133.649 67.6943 131 67.6943C128.352 67.6943 126.205 65.417 126.205 62.6065C126.205 62.5532 126.205 62.5075 126.205 62.4542C126.794 64.6782 128.718 66.3081 131 66.3081C133.283 66.3081 135.207 64.6782 135.795 62.4542C135.795 62.5075 135.795 62.5532 135.795 62.6065Z" fill="#AAF683"/>
<path d="M36.9646 125.533L38.9848 124.45C40.0526 123.878 40.7474 123.176 41.0692 122.344C41.3905 121.511 41.2946 120.556 40.7815 119.477C40.2934 118.452 39.6192 117.823 38.7589 117.59C37.8981 117.357 36.8958 117.548 35.7522 118.161C35.3453 118.379 35.0116 118.566 34.751 118.722C34.491 118.879 34.2339 119.059 33.9798 119.263L36.9646 125.533ZM39.6406 131.056L43.1829 138.5C42.9418 138.731 42.542 139.047 41.9834 139.447C41.4243 139.849 40.8525 140.206 40.268 140.519C39.6834 140.832 39.1463 141.061 38.6565 141.205C38.1668 141.349 37.7114 141.381 37.2905 141.302C36.8701 141.223 36.4808 141.008 36.1227 140.658C35.7652 140.308 35.4195 139.783 35.0858 139.082L26.0169 120.026C25.7471 119.46 25.6845 118.943 25.8291 118.476C25.9738 118.009 26.2555 117.545 26.6743 117.084C27.3845 116.297 28.2573 115.533 29.2926 114.793C30.3273 114.052 31.4041 113.382 32.5228 112.782C36.0306 110.903 39.091 110.262 41.7039 110.858C44.3168 111.456 46.2714 113.116 47.5678 115.841C48.1968 117.162 48.5679 118.461 48.6811 119.738C48.7943 121.014 48.6462 122.244 48.2366 123.428C47.827 124.613 47.1309 125.73 46.1482 126.782C45.1649 127.833 43.898 128.774 42.3475 129.605L39.6406 131.056ZM70.6026 126.67C69.0283 127.293 67.4854 127.637 65.9739 127.703C64.4624 127.768 63.0422 127.532 61.7133 126.993C60.3844 126.454 59.1844 125.591 58.1133 124.402C57.0428 123.213 56.1744 121.669 55.508 119.772C54.852 117.904 54.5746 116.184 54.6759 114.612C54.7772 113.04 55.1432 111.638 55.7738 110.405C56.4044 109.172 57.2481 108.114 58.3051 107.228C59.3615 106.343 60.5168 105.652 61.771 105.156C63.1849 104.597 64.5521 104.314 65.8723 104.309C67.192 104.302 68.4112 104.529 69.53 104.99C70.6492 105.45 71.6363 106.14 72.4912 107.06C73.3461 107.98 74.0021 109.091 74.4594 110.393C74.7974 111.356 74.8023 112.192 74.474 112.903C74.1463 113.613 73.5536 114.218 72.696 114.718L63.3613 120.198C63.9832 121.017 64.8297 121.48 65.9008 121.588C66.9723 121.697 68.0951 121.519 69.2691 121.055C70.3629 120.622 71.3446 120.065 72.2141 119.383C73.0836 118.7 73.7556 118.04 74.2302 117.4C74.7568 117.515 75.2563 117.769 75.7287 118.163C76.2011 118.556 76.5367 119.036 76.7356 119.602C77.183 120.876 76.9558 122.046 76.0538 123.112C75.369 123.931 74.5228 124.637 73.5151 125.229C72.5074 125.82 71.5366 126.301 70.6026 126.67ZM63.6205 110.422C62.9802 110.676 62.4663 111.008 62.079 111.419C61.6911 111.83 61.4126 112.271 61.2436 112.741C61.0745 113.211 60.9936 113.694 61.0006 114.191C61.0082 114.688 61.0781 115.168 61.2103 115.632L67.6374 111.736C67.3583 111.202 66.8659 110.752 66.16 110.386C65.4541 110.02 64.6076 110.032 63.6205 110.422ZM88.3513 105.12L89.9091 111.761C90.0879 112.523 90.4433 113.006 90.9753 113.208C91.5067 113.41 92.1869 113.401 93.0158 113.182C93.4302 113.073 93.8501 112.923 94.2754 112.733C94.7001 112.543 95.0644 112.346 95.3684 112.141C95.6929 112.398 95.9914 112.7 96.2639 113.049C96.5364 113.397 96.7379 113.85 96.8685 114.407C97.1301 115.521 96.9497 116.534 96.3273 117.446C95.7048 118.358 94.3986 119.076 92.4088 119.602C89.9768 120.244 87.9672 120.152 86.3799 119.326C84.792 118.499 83.6884 116.767 83.0692 114.128L78.6542 95.3042C78.9375 95.1358 79.3503 94.9254 79.8926 94.673C80.4349 94.4207 81.0238 94.2106 81.6593 94.0427C82.8755 93.722 83.8753 93.6992 84.6587 93.9746C85.4426 94.2505 86.0063 95.1214 86.3498 96.5872L87.0105 99.4025L92.4405 97.9686C92.6815 98.2474 92.9351 98.6084 93.2011 99.0516C93.4665 99.4953 93.6678 100.01 93.8049 100.597C94.0459 101.623 94.0056 102.42 93.6838 102.988C93.362 103.555 92.8419 103.934 92.1235 104.123L88.3513 105.12ZM121.488 107.371C121.145 107.735 120.69 108.041 120.124 108.289C119.558 108.536 118.892 108.694 118.126 108.762C117.104 108.854 116.249 108.794 115.561 108.582C114.873 108.371 114.403 107.942 114.152 107.297C113.148 104.719 112.325 102.632 111.684 101.036C111.043 99.4413 110.532 98.039 110.151 96.8295L109.938 96.8485C109.993 98.6328 110.057 100.257 110.131 101.721C110.204 103.185 110.288 104.61 110.384 105.996C110.479 107.383 110.562 108.785 110.632 110.204C110.701 111.623 110.761 113.195 110.812 114.918C110.455 115.102 109.983 115.273 109.395 115.431C108.808 115.59 108.216 115.696 107.62 115.749C106.372 115.861 105.383 115.737 104.654 115.377C103.926 115.017 103.517 114.281 103.429 113.167L102.838 90.0229C103.034 89.6113 103.497 89.1454 104.228 88.6252C104.958 88.1049 106.018 87.7827 107.409 87.6586C108.913 87.5246 110.11 87.6681 111.001 88.0888C111.892 88.5096 112.58 89.2595 113.066 90.3385C113.378 91.038 113.721 91.8414 114.092 92.7485C114.464 93.655 114.839 94.592 115.215 95.5594C115.592 96.5263 115.961 97.4863 116.322 98.4394C116.683 99.3924 117.009 100.25 117.298 101.013L117.51 100.994C117.991 98.404 118.478 95.8969 118.972 93.4728C119.466 91.0481 119.933 89.0126 120.375 87.3663C120.781 87.0875 121.311 86.8357 121.965 86.6109C122.618 86.3856 123.356 86.2361 124.179 86.1626C125.57 86.039 126.723 86.1562 127.637 86.5144C128.551 86.8725 129.111 87.4516 129.318 88.2518C129.479 88.8439 129.673 89.759 129.899 90.9972C130.126 92.2354 130.373 93.6308 130.638 95.1835C130.904 96.7367 131.177 98.3802 131.458 100.114C131.738 101.848 132.006 103.514 132.261 105.113C132.517 106.713 132.74 108.179 132.931 109.512C133.123 110.843 133.261 111.87 133.347 112.59C132.888 112.934 132.402 113.197 131.887 113.38C131.373 113.562 130.704 113.69 129.882 113.763C128.803 113.859 127.88 113.744 127.111 113.418C126.342 113.093 125.884 112.361 125.736 111.221C125.306 107.955 124.966 105.014 124.716 102.398C124.466 99.7825 124.228 97.5903 124.002 95.8216L123.789 95.8405C123.599 97.0402 123.304 98.552 122.905 100.376C122.507 102.201 122.035 104.533 121.488 107.371ZM149.47 109.857C149.952 109.913 150.488 109.921 151.079 109.882C151.67 109.844 152.116 109.75 152.417 109.602L152.785 105.998L149.699 105.918C148.9 105.887 148.23 105.993 147.69 106.235C147.15 106.477 146.85 106.898 146.788 107.499C146.728 108.1 146.898 108.613 147.298 109.039C147.699 109.464 148.423 109.737 149.47 109.857ZM150.932 92.1095C152.461 92.2843 153.838 92.6091 155.065 93.0839C156.291 93.5587 157.315 94.1853 158.138 94.9636C158.962 95.7414 159.562 96.676 159.938 97.7677C160.313 98.8593 160.429 100.111 160.285 101.523L159.259 111.617C159.179 112.398 158.909 113.013 158.448 113.462C157.987 113.91 157.455 114.282 156.852 114.578C154.892 115.539 152.242 115.828 148.902 115.445C147.401 115.273 146.065 114.969 144.892 114.53C143.719 114.092 142.732 113.523 141.93 112.824C141.127 112.123 140.539 111.281 140.167 110.296C139.795 109.312 139.671 108.203 139.796 106.971C140.007 104.899 140.749 103.373 142.023 102.395C143.297 101.416 145.166 100.931 147.628 100.939L153.255 100.946L153.288 100.63C153.376 99.7589 153.078 99.0941 152.395 98.636C151.711 98.1778 150.69 97.8708 149.33 97.7151C148.254 97.592 147.195 97.5923 146.151 97.7159C145.107 97.8395 144.157 98.0347 143.299 98.3014C142.959 97.9887 142.689 97.5397 142.491 96.9546C142.293 96.3699 142.224 95.7773 142.285 95.1766C142.364 94.3954 142.605 93.7921 143.006 93.3667C143.408 92.9419 143.993 92.6065 144.762 92.3605C145.617 92.1236 146.611 91.9943 147.745 91.9724C148.879 91.95 149.941 91.9957 150.932 92.1095ZM175.996 105.289L174.429 111.928C174.249 112.69 174.349 113.293 174.729 113.736C175.109 114.18 175.713 114.512 176.541 114.732C176.956 114.842 177.393 114.919 177.852 114.964C178.311 115.007 178.721 115.015 179.08 114.986C179.252 115.374 179.381 115.79 179.467 116.234C179.554 116.677 179.531 117.177 179.4 117.734C179.137 118.848 178.529 119.652 177.576 120.146C176.622 120.64 175.151 120.623 173.162 120.095C170.731 119.449 168.998 118.365 167.963 116.844C166.927 115.323 166.721 113.244 167.344 110.606L171.785 91.7879C172.109 91.781 172.567 91.8014 173.157 91.8491C173.748 91.8968 174.361 92.0052 174.996 92.1742C176.212 92.4973 177.104 92.9758 177.674 93.6099C178.243 94.2439 178.355 95.2938 178.01 96.7597L177.345 99.5732L182.773 101.016C182.863 101.383 182.926 101.828 182.964 102.351C183.002 102.876 182.952 103.431 182.813 104.016C182.571 105.043 182.182 105.726 181.647 106.066C181.112 106.407 180.485 106.482 179.766 106.291L175.996 105.289ZM200.892 111.655C200.227 111.384 199.555 111.24 198.876 111.221C198.196 111.203 197.557 111.323 196.96 111.581C196.363 111.839 195.814 112.238 195.314 112.779C194.813 113.319 194.404 114.026 194.087 114.9C193.453 116.648 193.45 118.153 194.077 119.412C194.703 120.671 195.694 121.578 197.05 122.131C197.847 122.456 198.574 122.639 199.231 122.68C199.887 122.721 200.482 122.721 201.015 122.68C201.404 123.292 201.647 123.884 201.744 124.458C201.841 125.032 201.772 125.644 201.537 126.292C201.118 127.449 200.275 128.133 199.009 128.344C197.742 128.556 196.192 128.287 194.358 127.539C192.684 126.856 191.263 125.977 190.097 124.902C188.93 123.827 188.033 122.619 187.405 121.279C186.777 119.938 186.438 118.497 186.386 116.955C186.335 115.412 186.601 113.837 187.183 112.229C187.858 110.368 188.734 108.856 189.811 107.693C190.888 106.53 192.082 105.698 193.393 105.197C194.704 104.696 196.085 104.482 197.538 104.557C198.99 104.632 200.434 104.962 201.869 105.548C203.783 106.328 205.126 107.297 205.897 108.453C206.668 109.609 206.843 110.766 206.424 111.922C206.23 112.457 205.929 112.909 205.521 113.277C205.113 113.645 204.689 113.933 204.247 114.141C203.877 113.731 203.411 113.29 202.85 112.818C202.289 112.346 201.636 111.959 200.892 111.655ZM230.27 130.228L224.117 142.311C223.827 142.247 223.391 142.1 222.812 141.871C222.233 141.642 221.655 141.363 221.079 141.032C220.527 140.716 220.053 140.392 219.655 140.061C219.258 139.73 218.969 139.359 218.79 138.947C218.611 138.536 218.545 138.077 218.592 137.572C218.639 137.067 218.832 136.482 219.17 135.817L223.678 126.965C224.233 125.875 224.365 124.963 224.074 124.23C223.784 123.497 223.263 122.915 222.512 122.484C222.011 122.197 221.501 121.99 220.982 121.865C220.463 121.739 220.019 121.69 219.649 121.719L212.542 135.675C212.251 135.611 211.816 135.465 211.237 135.236C210.658 135.007 210.08 134.727 209.504 134.397C208.952 134.081 208.478 133.757 208.08 133.426C207.683 133.095 207.394 132.724 207.215 132.312C207.036 131.901 206.97 131.442 207.017 130.937C207.064 130.432 207.257 129.847 207.595 129.182L219.371 106.054C219.674 106.159 220.118 106.319 220.704 106.534C221.29 106.75 221.859 107.016 222.41 107.332C222.961 107.648 223.435 107.972 223.833 108.303C224.231 108.634 224.52 109.005 224.698 109.417C224.877 109.828 224.943 110.287 224.896 110.792C224.849 111.297 224.657 111.882 224.318 112.547L222.329 116.454C222.722 116.509 223.295 116.64 224.047 116.848C224.799 117.055 225.576 117.389 226.377 117.849C228.858 119.27 230.458 121.038 231.178 123.151C231.899 125.264 231.596 127.623 230.27 130.228Z" fill="#464647"/>
<path d="M49.3793 160.062H51.735C52.5156 160.062 53.1278 160.252 53.5716 160.631C54.0153 161.01 54.2372 161.533 54.2372 162.201C54.2372 162.568 54.1443 162.887 53.9586 163.158C53.773 163.428 53.5008 163.647 53.142 163.814C53.5479 163.941 53.8398 164.152 54.0176 164.448C54.1955 164.743 54.2845 165.11 54.2845 165.547V165.918C54.2845 166.078 54.3144 166.203 54.3741 166.291C54.4339 166.38 54.5331 166.432 54.6716 166.449L54.8414 166.474V167.356H54.1286C53.6786 167.356 53.3623 167.227 53.1796 166.97C52.9971 166.713 52.9059 166.381 52.9059 165.973V165.557C52.9059 165.203 52.817 164.925 52.6392 164.723C52.4613 164.521 52.2102 164.415 51.8861 164.405H50.7578V166.329L51.4943 166.479V167.356H48.6475V166.479L49.3793 166.329V161.094L48.6475 160.944V160.062H49.3793ZM50.7578 161.189V163.278H51.7114C52.0955 163.278 52.3835 163.191 52.5754 163.018C52.7674 162.844 52.8634 162.593 52.8634 162.266C52.8634 161.939 52.7682 161.678 52.5778 161.482C52.3873 161.287 52.1064 161.189 51.735 161.189H50.7578ZM61.5454 163.023V164.15H59.2179V166.234H61.4367L61.4981 165.362H62.5462V167.356H57.1075V166.479L57.8393 166.329V161.094L57.1075 160.944V160.062H57.8393H62.5367V162.061H61.4792L61.4179 161.189H59.2179V163.023H61.5454ZM70.3169 160.899V162.391H69.2832L69.1037 161.39C68.9841 161.309 68.8094 161.239 68.5796 161.179C68.3498 161.119 68.106 161.089 67.848 161.089C67.4702 161.089 67.1783 161.173 66.9722 161.342C66.766 161.511 66.663 161.729 66.663 161.996C66.663 162.243 66.7708 162.446 66.9863 162.604C67.2019 162.763 67.5741 162.931 68.1028 163.108C68.8614 163.331 69.4366 163.627 69.8285 163.994C70.2203 164.362 70.4162 164.844 70.4162 165.442C70.4162 166.067 70.1833 166.559 69.7175 166.92C69.2516 167.28 68.6379 167.461 67.8762 167.461C67.3317 167.461 66.8399 167.369 66.4009 167.185C65.9618 167.002 65.5959 166.748 65.3033 166.424V164.901H66.3703L66.5165 165.938C66.655 166.058 66.8431 166.158 67.0807 166.236C67.3183 166.314 67.5835 166.354 67.8762 166.354C68.2539 166.354 68.5411 166.272 68.7377 166.108C68.9344 165.945 69.0328 165.726 69.0328 165.452C69.0328 165.172 68.9392 164.946 68.752 164.776C68.5647 164.605 68.2366 164.445 67.7676 164.295C66.9525 164.045 66.3357 163.747 65.9171 163.403C65.4984 163.059 65.289 162.588 65.289 161.991C65.289 161.4 65.5251 160.916 65.9973 160.54C66.4694 160.165 67.0627 159.972 67.7771 159.962C68.3058 159.962 68.7873 160.047 69.2218 160.217C69.656 160.388 70.0211 160.615 70.3169 160.899ZM78.4042 161.079V162.522H77.3797L77.2381 161.55C77.1027 161.406 76.932 161.293 76.7258 161.209C76.5197 161.126 76.2766 161.084 75.9965 161.084C75.3985 161.084 74.9381 161.314 74.6155 161.775C74.2929 162.236 74.1316 162.837 74.1316 163.579V163.834C74.1316 164.576 74.2921 165.178 74.613 165.642C74.9341 166.107 75.3873 166.339 75.9727 166.339C76.2434 166.339 76.4913 166.297 76.7164 166.213C76.9414 166.13 77.1153 166.016 77.2381 165.873L77.3797 164.901H78.4042V166.344C78.1271 166.684 77.7738 166.956 77.3442 167.158C76.9146 167.36 76.4339 167.461 75.902 167.461C74.9798 167.461 74.2245 167.122 73.6359 166.444C73.0473 165.766 72.753 164.896 72.753 163.834V163.589C72.753 162.53 73.0457 161.66 73.6311 160.979C74.2166 160.298 74.9735 159.957 75.902 159.957C76.4339 159.957 76.9138 160.06 77.3418 160.265C77.7699 160.47 78.124 160.742 78.4042 161.079ZM82.8797 160.062H83.6162V160.944L82.8797 161.094V164.901C82.8797 165.382 83.0017 165.742 83.2455 165.981C83.4894 166.219 83.8238 166.339 84.2487 166.339C84.6798 166.339 85.0183 166.22 85.2639 165.983C85.5093 165.746 85.6321 165.385 85.6321 164.901V161.094L84.9003 160.944V160.062H87.7471V160.944L87.0105 161.094V164.901C87.0105 165.719 86.7563 166.35 86.2481 166.795C85.7398 167.239 85.0733 167.461 84.2487 167.461C83.4272 167.461 82.764 167.239 82.2589 166.795C81.7537 166.35 81.5011 165.719 81.5011 164.901V161.094L80.7693 160.944V160.062H81.5011H82.8797ZM94.4038 163.023V164.15H92.0762V166.234H94.295L94.3564 165.362H95.4045V167.356H89.9659V166.479L90.6976 166.329V161.094L89.9659 160.944V160.062H90.6976H95.395V162.061H94.3375L94.2763 161.189H92.0762V163.023H94.4038Z" fill="#464647"/>
<path d="M171.421 161.135V162.578H170.397L170.255 161.606C170.12 161.462 169.949 161.349 169.743 161.265C169.537 161.182 169.294 161.14 169.014 161.14C168.416 161.14 167.955 161.37 167.633 161.831C167.31 162.292 167.149 162.893 167.149 163.635V163.89C167.149 164.632 167.31 165.234 167.631 165.698C167.952 166.163 168.405 166.395 168.99 166.395C169.261 166.395 169.509 166.353 169.734 166.269C169.959 166.186 170.133 166.072 170.255 165.929L170.397 164.957H171.421V166.4C171.145 166.74 170.791 167.012 170.362 167.214C169.932 167.416 169.451 167.517 168.919 167.517C167.997 167.517 167.242 167.178 166.653 166.5C166.065 165.822 165.771 164.952 165.771 163.89V163.645C165.771 162.586 166.063 161.716 166.649 161.035C167.234 160.354 167.991 160.013 168.919 160.013C169.451 160.013 169.931 160.116 170.359 160.321C170.787 160.526 171.141 160.798 171.421 161.135ZM173.796 167.412V166.535L174.287 166.46L176.379 160.118H177.79L179.867 166.46L180.358 166.535V167.412H178.017V166.535L178.494 166.445L178.192 165.443H175.963L175.661 166.445L176.138 166.535V167.412H173.796ZM177.063 161.796L176.289 164.366H177.866L177.091 161.796H177.063ZM183.356 160.118H185.712C186.493 160.118 187.105 160.308 187.549 160.687C187.992 161.066 188.214 161.589 188.214 162.257C188.214 162.624 188.121 162.943 187.936 163.214C187.75 163.484 187.478 163.703 187.119 163.87C187.525 163.997 187.817 164.208 187.995 164.504C188.173 164.799 188.261 165.166 188.261 165.603V165.974C188.261 166.134 188.291 166.259 188.351 166.347C188.411 166.436 188.51 166.488 188.649 166.505L188.819 166.53V167.412H188.106C187.656 167.412 187.339 167.283 187.157 167.026C186.974 166.769 186.883 166.437 186.883 166.029V165.613C186.883 165.259 186.794 164.981 186.616 164.779C186.438 164.577 186.187 164.471 185.863 164.461H184.735V166.385L185.471 166.535V167.412H182.625V166.535L183.356 166.385V161.15L182.625 161V160.118H183.356ZM184.735 161.245V163.334H185.689C186.072 163.334 186.36 163.247 186.552 163.074C186.744 162.9 186.84 162.649 186.84 162.322C186.84 161.995 186.745 161.734 186.555 161.538C186.364 161.343 186.083 161.245 185.712 161.245H184.735ZM195.522 163.079V164.206H193.195V166.29H195.414L195.475 165.418H196.523V167.412H191.085V166.535L191.816 166.385V161.15L191.085 161V160.118H191.816H196.514V162.117H195.456L195.395 161.245H193.195V163.079H195.522Z" fill="#464647"/>
<path d="M72.6786 202.303V203.858H71.6018L71.4148 202.815C71.2902 202.731 71.1082 202.658 70.8689 202.595C70.6297 202.533 70.3756 202.501 70.1067 202.501C69.7133 202.501 69.4092 202.589 69.1945 202.765C68.9797 202.941 68.8724 203.168 68.8724 203.446C68.8724 203.703 68.9846 203.915 69.2092 204.08C69.4338 204.245 69.8215 204.42 70.3722 204.604C71.1624 204.837 71.7615 205.145 72.1698 205.528C72.5779 205.911 72.7819 206.413 72.7819 207.036C72.7819 207.686 72.5393 208.2 72.0542 208.575C71.569 208.951 70.9296 209.139 70.1361 209.139C69.5691 209.139 69.0568 209.043 68.5994 208.852C68.1421 208.66 67.7609 208.396 67.4561 208.059V206.472H68.5674L68.7199 207.553C68.8641 207.678 69.06 207.781 69.3077 207.863C69.5552 207.945 69.8313 207.986 70.1361 207.986C70.5296 207.986 70.8288 207.9 71.0337 207.73C71.2386 207.56 71.3411 207.332 71.3411 207.046C71.3411 206.754 71.2435 206.519 71.0484 206.342C70.8534 206.165 70.5117 205.998 70.0231 205.841C69.174 205.58 68.5315 205.27 68.0955 204.912C67.6594 204.554 67.4414 204.063 67.4414 203.441C67.4414 202.825 67.6873 202.321 68.179 201.93C68.6708 201.539 69.2888 201.338 70.033 201.327C70.5837 201.327 71.0853 201.416 71.5377 201.593C71.9902 201.771 72.3705 202.007 72.6786 202.303ZM82.7779 203.383V204.302L82.2419 204.375L81.1304 209.029H79.9305L78.9421 205.669H78.9127L77.924 209.029H76.7292L75.6128 204.375L75.0768 204.302V203.383H77.4865V204.302L76.9209 204.416L77.4225 206.999H77.4521L78.4453 203.383H79.4092L80.4125 207.01H80.4419L80.9387 204.422L80.3682 204.302V203.383H82.7779ZM85.0384 209.029V208.116L85.7317 207.959V204.458L84.9646 204.302V203.383H87.1677V207.959L87.8562 208.116V209.029H85.0384ZM87.1677 200.889V202.032H85.7317V200.889H87.1677ZM90.8001 204.458L90.033 204.302V203.383H92.118L92.1869 204.041C92.3443 203.797 92.5328 203.609 92.7525 203.477C92.9721 203.345 93.2278 203.279 93.5196 203.279C94.1787 203.279 94.6901 203.552 95.0539 204.098C95.4178 204.644 95.5998 205.363 95.5998 206.253V206.363C95.5998 207.198 95.4178 207.869 95.0539 208.377C94.6901 208.885 94.182 209.139 93.5295 209.139C93.2508 209.139 93.0033 209.084 92.787 208.974C92.5705 208.865 92.3853 208.704 92.2312 208.492V210.125L92.9246 210.281V211.2H90.1068V210.281L90.8001 210.125V204.458ZM94.164 206.363V206.253C94.164 205.721 94.0803 205.29 93.913 204.959C93.7458 204.629 93.4901 204.463 93.1459 204.463C92.9296 204.463 92.7452 204.51 92.5926 204.604C92.4402 204.698 92.3197 204.832 92.2312 205.006V207.479C92.3197 207.639 92.4402 207.761 92.5926 207.845C92.7452 207.928 92.9329 207.97 93.1558 207.97C93.5033 207.97 93.7582 207.826 93.9204 207.537C94.0828 207.248 94.164 206.857 94.164 206.363ZM100.599 209.139C99.8323 209.139 99.2192 208.878 98.7602 208.356C98.3012 207.834 98.0717 207.172 98.0717 206.368V206.159C98.0717 205.321 98.2889 204.63 98.7233 204.088C99.1578 203.545 99.7405 203.275 100.472 203.279C101.19 203.279 101.747 203.509 102.144 203.968C102.54 204.427 102.739 205.048 102.739 205.831V206.66H99.5617L99.552 206.691C99.5782 207.064 99.6954 207.37 99.9035 207.61C100.112 207.85 100.394 207.97 100.752 207.97C101.07 207.97 101.334 207.936 101.544 207.868C101.753 207.8 101.983 207.693 102.232 207.547L102.621 208.487C102.401 208.671 102.117 208.826 101.767 208.951C101.418 209.076 101.029 209.139 100.599 209.139ZM100.472 204.453C100.206 204.453 99.9961 204.561 99.8421 204.776C99.6879 204.992 99.5928 205.276 99.5569 205.627L99.5716 205.653H101.332V205.517C101.332 205.194 101.261 204.936 101.118 204.743C100.976 204.55 100.76 204.453 100.472 204.453ZM106.892 207.761L106.888 208.826C106.888 209.181 106.793 209.556 106.605 209.953C106.416 210.349 106.186 210.675 105.914 210.929L105.206 210.521C105.333 210.278 105.432 210.027 105.501 209.768C105.57 209.508 105.604 209.219 105.604 208.899V207.761H106.892ZM114.398 204.458L113.631 204.302V203.383H115.731L115.79 204.129C115.96 203.858 116.174 203.649 116.432 203.501C116.689 203.353 116.986 203.279 117.324 203.279C117.665 203.279 117.957 203.359 118.2 203.519C118.442 203.679 118.626 203.921 118.75 204.244C118.914 203.942 119.127 203.705 119.39 203.535C119.652 203.364 119.96 203.279 120.314 203.279C120.839 203.279 121.253 203.471 121.556 203.856C121.859 204.24 122.011 204.825 122.011 205.611V207.959L122.704 208.116V209.029H119.955V208.116L120.575 207.959V205.606C120.575 205.178 120.509 204.881 120.378 204.714C120.247 204.547 120.052 204.463 119.793 204.463C119.59 204.463 119.413 204.511 119.264 204.607C119.115 204.703 118.996 204.836 118.908 205.006C118.908 205.072 118.909 205.129 118.913 205.176C118.916 205.223 118.918 205.271 118.918 205.319V207.959L119.498 208.116V209.029H116.906V208.116L117.487 207.959V205.606C117.487 205.189 117.421 204.894 117.29 204.722C117.159 204.55 116.962 204.463 116.7 204.463C116.506 204.463 116.337 204.503 116.191 204.581C116.045 204.659 115.924 204.769 115.829 204.912V207.959L116.449 208.116V209.029H113.705V208.116L114.398 207.959V204.458ZM130.025 209.029H128.368C128.328 208.935 128.294 208.839 128.265 208.74C128.235 208.64 128.212 208.54 128.196 208.44C128.025 208.648 127.818 208.817 127.573 208.946C127.329 209.074 127.05 209.139 126.735 209.139C126.214 209.139 125.8 208.988 125.493 208.687C125.187 208.387 125.033 207.977 125.033 207.459C125.033 206.93 125.233 206.521 125.633 206.232C126.033 205.944 126.62 205.799 127.394 205.799H128.127V205.246C128.127 204.975 128.053 204.764 127.905 204.615C127.758 204.465 127.54 204.39 127.251 204.39C127.087 204.39 126.942 204.41 126.814 204.45C126.686 204.49 126.582 204.538 126.504 204.594L126.41 205.199H125.328L125.333 203.947C125.596 203.759 125.897 203.601 126.236 203.472C126.575 203.343 126.945 203.279 127.345 203.279C128.004 203.279 128.539 203.45 128.95 203.793C129.362 204.135 129.568 204.623 129.568 205.257V207.589C129.568 207.676 129.568 207.758 129.57 207.834C129.572 207.911 129.578 207.984 129.587 208.054L130.025 208.116V209.029ZM127.123 208.012C127.34 208.012 127.537 207.962 127.714 207.863C127.891 207.764 128.028 207.64 128.127 207.49V206.629H127.394C127.089 206.629 126.858 206.705 126.701 206.856C126.543 207.007 126.465 207.189 126.465 207.401C126.465 207.593 126.523 207.742 126.639 207.85C126.755 207.958 126.917 208.012 127.123 208.012ZM132.62 202H134.051V203.383H134.985V204.453H134.051V207.328C134.051 207.547 134.093 207.704 134.179 207.798C134.264 207.892 134.379 207.939 134.523 207.939C134.621 207.939 134.707 207.934 134.781 207.926C134.855 207.917 134.938 207.902 135.029 207.881L135.152 208.982C134.992 209.034 134.833 209.074 134.675 209.1C134.518 209.126 134.348 209.139 134.164 209.139C133.669 209.139 133.288 208.994 133.02 208.706C132.753 208.417 132.62 207.959 132.62 207.333V204.453H131.838V203.383H132.62V202ZM139.999 207.97C140.255 207.97 140.46 207.891 140.614 207.733C140.768 207.574 140.845 207.363 140.845 207.099H142.144L142.158 207.13C142.172 207.7 141.97 208.178 141.553 208.562C141.137 208.947 140.619 209.139 139.999 209.139C139.206 209.139 138.595 208.873 138.165 208.34C137.736 207.808 137.521 207.125 137.521 206.29V206.133C137.521 205.302 137.741 204.618 138.182 204.082C138.623 203.547 139.252 203.279 140.068 203.279C140.498 203.279 140.883 203.347 141.224 203.482C141.565 203.618 141.849 203.809 142.075 204.056L142.095 205.564H140.929L140.693 204.683C140.621 204.616 140.532 204.562 140.427 204.518C140.322 204.475 140.203 204.453 140.068 204.453C139.662 204.453 139.375 204.61 139.208 204.923C139.04 205.236 138.957 205.639 138.957 206.133V206.29C138.957 206.794 139.034 207.2 139.188 207.508C139.342 207.816 139.613 207.97 139.999 207.97ZM144.542 209.029V208.116L145.235 207.959V201.964L144.468 201.807V200.889H146.666V204.103C146.833 203.842 147.038 203.64 147.281 203.495C147.523 203.351 147.792 203.279 148.087 203.279C148.645 203.279 149.082 203.475 149.398 203.866C149.714 204.257 149.873 204.862 149.873 205.679V207.959L150.561 208.116V209.029H147.817V208.116L148.437 207.959V205.669C148.437 205.23 148.364 204.92 148.218 204.737C148.072 204.555 147.855 204.463 147.566 204.463C147.366 204.463 147.192 204.502 147.042 204.578C146.893 204.655 146.768 204.763 146.666 204.902V207.959L147.286 208.116V209.029H144.542ZM154.498 207.761L154.493 208.826C154.493 209.181 154.399 209.556 154.211 209.953C154.022 210.349 153.792 210.675 153.52 210.929L152.812 210.521C152.939 210.278 153.038 210.027 153.107 209.768C153.175 209.508 153.21 209.219 153.21 208.899V207.761H154.498ZM166.45 209.029H164.792C164.753 208.935 164.719 208.839 164.689 208.74C164.66 208.64 164.637 208.54 164.62 208.44C164.45 208.648 164.243 208.817 163.998 208.946C163.754 209.074 163.475 209.139 163.16 209.139C162.639 209.139 162.225 208.988 161.918 208.687C161.612 208.387 161.458 207.977 161.458 207.459C161.458 206.93 161.658 206.521 162.058 206.232C162.458 205.944 163.045 205.799 163.819 205.799H164.552V205.246C164.552 204.975 164.478 204.764 164.33 204.615C164.183 204.465 163.965 204.39 163.676 204.39C163.512 204.39 163.366 204.41 163.238 204.45C163.111 204.49 163.007 204.538 162.929 204.594L162.835 205.199H161.753L161.758 203.947C162.021 203.759 162.321 203.601 162.661 203.472C163 203.343 163.37 203.279 163.77 203.279C164.429 203.279 164.964 203.45 165.375 203.793C165.787 204.135 165.992 204.623 165.992 205.257V207.589C165.992 207.676 165.993 207.758 165.995 207.834C165.997 207.911 166.002 207.984 166.012 208.054L166.45 208.116V209.029ZM163.548 208.012C163.765 208.012 163.961 207.962 164.138 207.863C164.316 207.764 164.453 207.64 164.552 207.49V206.629H163.819C163.514 206.629 163.283 206.705 163.125 206.856C162.968 207.007 162.889 207.189 162.889 207.401C162.889 207.593 162.948 207.742 163.064 207.85C163.18 207.958 163.342 208.012 163.548 208.012ZM172.32 209.029L172.212 208.34C172.044 208.601 171.847 208.8 171.619 208.935C171.391 209.071 171.131 209.139 170.84 209.139C170.184 209.139 169.675 208.885 169.313 208.377C168.95 207.869 168.769 207.198 168.769 206.363V206.253C168.769 205.363 168.951 204.644 169.315 204.098C169.679 203.552 170.19 203.279 170.85 203.279C171.115 203.279 171.354 203.341 171.567 203.464C171.781 203.588 171.967 203.762 172.128 203.989V201.964L171.361 201.807V200.889H172.128H173.564V207.959L174.252 208.116V209.029H172.32ZM170.205 206.253V206.363C170.205 206.857 170.283 207.245 170.439 207.529C170.595 207.813 170.849 207.954 171.203 207.954C171.413 207.954 171.595 207.909 171.749 207.819C171.903 207.728 172.03 207.598 172.128 207.427V205.032C172.03 204.851 171.904 204.711 171.752 204.612C171.599 204.513 171.42 204.463 171.213 204.463C170.863 204.463 170.607 204.629 170.446 204.959C170.285 205.29 170.205 205.721 170.205 206.253ZM176.523 206.264V206.154C176.523 205.312 176.745 204.623 177.189 204.085C177.633 203.548 178.247 203.279 179.031 203.279C179.818 203.279 180.433 203.547 180.877 204.082C181.322 204.618 181.544 205.309 181.544 206.154V206.264C181.544 207.112 181.322 207.804 180.877 208.338C180.433 208.872 179.821 209.139 179.041 209.139C178.251 209.139 177.633 208.872 177.189 208.338C176.745 207.804 176.523 207.112 176.523 206.264ZM177.959 206.154V206.264C177.959 206.778 178.044 207.192 178.214 207.503C178.385 207.814 178.66 207.97 179.041 207.97C179.411 207.97 179.682 207.813 179.854 207.5C180.027 207.187 180.113 206.775 180.113 206.264V206.154C180.113 205.653 180.026 205.244 179.852 204.928C179.678 204.611 179.405 204.453 179.031 204.453C178.657 204.453 178.385 204.611 178.214 204.928C178.044 205.244 177.959 205.653 177.959 206.154ZM184.64 204.458L183.873 204.302V203.383H185.958L186.027 204.041C186.184 203.797 186.373 203.609 186.592 203.477C186.812 203.345 187.068 203.279 187.36 203.279C188.019 203.279 188.53 203.552 188.894 204.098C189.258 204.644 189.44 205.363 189.44 206.253V206.363C189.44 207.198 189.258 207.869 188.894 208.377C188.53 208.885 188.022 209.139 187.369 209.139C187.091 209.139 186.843 209.084 186.627 208.974C186.41 208.865 186.225 208.704 186.071 208.492V210.125L186.765 210.281V211.2H183.947V210.281L184.64 210.125V204.458ZM188.004 206.363V206.253C188.004 205.721 187.92 205.29 187.753 204.959C187.586 204.629 187.33 204.463 186.986 204.463C186.77 204.463 186.585 204.51 186.433 204.604C186.28 204.698 186.16 204.832 186.071 205.006V207.479C186.16 207.639 186.28 207.761 186.433 207.845C186.585 207.928 186.773 207.97 186.996 207.97C187.343 207.97 187.598 207.826 187.76 207.537C187.923 207.248 188.004 206.857 188.004 206.363ZM192.58 202H194.012V203.383H194.946V204.453H194.012V207.328C194.012 207.547 194.054 207.704 194.139 207.798C194.225 207.892 194.339 207.939 194.484 207.939C194.582 207.939 194.668 207.934 194.742 207.926C194.816 207.917 194.898 207.902 194.99 207.881L195.113 208.982C194.952 209.034 194.793 209.074 194.636 209.1C194.479 209.126 194.308 209.139 194.125 209.139C193.63 209.139 193.248 208.994 192.981 208.706C192.714 208.417 192.58 207.959 192.58 207.333V204.453H191.799V203.383H192.58V202Z" fill="#464647"/>
</svg>
