<svg width="205" height="220" viewBox="0 0 205 220" fill="none" xmlns="http://www.w3.org/2000/svg">
<g style="mix-blend-mode:darken" clip-path="url(#clip0_146_1989)">
<path fill-rule="evenodd" clip-rule="evenodd" d="M67.0065 115.429C75.0685 122.403 77.0289 132.041 71.3877 136.962C65.7463 141.883 54.6386 140.22 46.5776 133.248C38.5163 126.275 36.5554 116.637 42.1969 111.716C47.8387 106.797 58.9461 108.459 67.0065 115.429Z" fill="#ACBCA6"/>
<path fill-rule="evenodd" clip-rule="evenodd" d="M131.887 91.0453C130.413 101.603 135.286 110.147 142.773 110.133C150.258 110.12 157.521 101.554 158.995 90.9979C160.468 80.4422 155.595 71.8978 148.11 71.911C140.624 71.9249 133.361 80.4918 131.887 91.0453Z" fill="#ACBCA6"/>
<path fill-rule="evenodd" clip-rule="evenodd" d="M88.3025 87.3753C94.2778 95.8533 93.7984 105.89 87.2328 109.793C80.6669 113.695 70.5001 109.985 64.5255 101.508C58.5507 93.0295 59.0298 82.993 65.5958 79.0907C72.1615 75.188 82.3276 78.897 88.3025 87.3753Z" fill="#ACBCA6"/>
<path fill-rule="evenodd" clip-rule="evenodd" d="M97.2131 84.0355C98.3029 94.3495 105.271 101.588 112.782 100.199C120.293 98.8119 125.5 89.3243 124.411 79.0099C123.324 68.695 116.353 61.4582 108.842 62.8466C101.331 64.2347 96.1241 73.721 97.2131 84.0355Z" fill="#ACBCA6"/>
<path fill-rule="evenodd" clip-rule="evenodd" d="M91.2984 122.097C90.5048 125.202 85.6038 136.334 81.1417 141.18C76.6801 146.026 71.3862 152.657 76.0404 161.564C80.6947 170.474 93.7541 170.127 101.229 166.913C108.705 163.701 122.614 157.149 133.298 154.476C143.981 151.804 156.572 146.054 156.238 135.975C155.905 125.896 146.994 122.744 140.496 121.497C134 120.251 121.546 113.903 117.16 110.487C112.776 107.073 95.8912 104.149 91.2984 122.097Z" fill="#ACBCA6"/>
</g>
<defs>
<clipPath id="clip0_146_1989">
<rect width="151" height="177" fill="white" transform="translate(0.437012 53.551) rotate(-20.5977)"/>
</clipPath>
</defs>
</svg>
