<svg width="58" height="58" viewBox="0 0 58 58" fill="none" xmlns="http://www.w3.org/2000/svg">
<path d="M37.4856 22.6975L37.4501 22.7314C36.7561 23.3948 36.184 24.1754 35.7591 25.0387L35.788 24.9842C35.3735 25.825 35.1824 26.762 35.233 27.7065L35.234 27.7144C35.2707 28.6206 35.6318 29.5269 36.3175 30.2432L36.3711 30.2992L36.3689 30.2968C37.2789 31.2368 38.5146 31.7883 39.8095 31.8324C41.1686 31.9338 42.5268 31.7246 43.7812 31.2208L43.8392 31.1944C45.0332 30.727 46.1246 30.0379 47.0568 29.1629L47.0969 29.1245C47.8106 28.4413 48.3741 27.6582 48.7878 26.8173L48.7589 26.8718C49.1735 26.031 49.3646 25.094 49.314 24.1495L49.3129 24.1416C49.2733 23.1691 48.8637 22.2414 48.168 21.5486L48.1714 21.5521C47.2625 20.6106 46.0261 20.0588 44.7308 20.0166C43.3787 19.9225 42.0288 20.1329 40.7805 20.6323L40.7225 20.6587C39.599 21.088 38.4781 21.7787 37.4946 22.7001L37.4912 22.7033L37.4856 22.6975ZM34.8207 37.1981L34.7235 37.2889C33.862 38.1109 33.2821 39.1855 33.064 40.3642L33.0688 40.3417C32.9638 40.8846 32.992 41.4474 33.1512 41.9821C33.3104 42.5169 33.5958 43.0077 33.983 43.4126L34.0958 43.5259L34.0903 43.5201C35.0159 44.4665 36.2499 45.0466 37.558 45.1504L37.5512 45.1502C38.9039 45.2978 40.267 45.1598 41.552 44.7451C42.8369 44.3304 44.0151 43.6483 45.0102 42.743L45.0194 42.7343L45.1143 42.6456C46.0122 41.7861 46.5703 40.7019 46.7852 39.5594L46.7804 39.5819C46.8947 39.0123 46.8613 38.4201 46.6831 37.8613C46.505 37.3025 46.1881 36.7957 45.7626 36.3889L45.7682 36.3948C44.8425 35.4484 43.6085 34.8682 42.3004 34.7644L42.3072 34.7646C40.9496 34.6194 39.5823 34.7605 38.2937 35.1788C37.0051 35.597 35.8239 36.2831 34.8265 37.1926L34.8184 37.2003L34.8207 37.1981ZM28.423 29.5483C26.7014 27.9322 24.5274 26.8873 22.2069 26.5604L22.2351 26.5647C19.5436 26.022 16.7854 25.9748 14.0965 26.4254L14.0024 26.4439C11.7309 26.7045 9.5986 27.6272 7.86903 29.0979L7.84504 29.1186L7.74328 29.2116C7.28116 29.6539 6.95476 30.1877 6.76699 30.7587L6.77516 30.7375C6.61128 31.2697 6.62382 31.844 6.81094 32.3755L6.81753 32.3915C6.98351 32.8832 7.23742 33.3981 7.56298 33.8779L7.58635 33.9092C7.93199 34.4036 8.31585 34.8704 8.73429 35.3053L8.81805 35.3928L8.81358 35.3882C10.0423 36.5155 11.4521 37.4259 12.981 38.0792L12.8899 38.0367C14.3344 38.6529 15.67 39.5056 16.841 40.5591L16.8779 40.593C18.0159 41.9696 18.8736 43.4335 19.4896 44.9678L19.4422 44.8633C20.0934 46.4547 20.9964 47.9347 22.1159 49.2457L22.1461 49.2795C24.2783 51.51 26.2142 51.7927 27.9536 50.1277C29.1241 48.9104 29.9695 47.4161 30.4143 45.778L30.3989 45.8307C31.0041 43.9434 31.3428 41.9759 31.4053 39.9847L31.4051 39.9937C31.471 38.0428 31.2587 36.087 30.7748 34.1852L30.7433 34.0767C30.3792 32.4053 29.5862 30.8498 28.4432 29.5648L28.4298 29.5508L28.423 29.5483ZM28.0232 21.5807L28.0746 21.6344C28.7325 22.3231 29.6173 22.7481 30.5581 22.8274L30.5536 22.8273C31.4845 22.9213 32.4193 22.7773 33.2702 22.4089L33.3066 22.3919C34.1679 22.011 34.9542 21.4829 35.6309 20.831L35.6686 20.7948L35.6663 20.797C36.6343 19.8503 37.3722 18.7617 37.8826 17.5912L37.8501 17.6581C38.4202 16.4197 38.6994 15.0623 38.6666 13.6884L38.6656 13.6805C38.6787 12.3854 38.1815 11.1273 37.2817 10.1784L37.2292 10.1235C36.5435 9.40721 35.6527 9.00792 34.7457 8.93052L34.7502 8.93066C33.8229 8.83904 32.8895 8.97687 32.0336 9.34906L31.9972 9.366C31.1868 9.71475 30.3742 10.2467 29.6559 10.9343L29.633 10.9562L29.6341 10.9551C28.7008 11.868 27.9519 12.9527 27.427 14.1522L27.4595 14.0853C26.8847 15.3288 26.6064 16.6937 26.6462 18.0743L26.646 18.0834C26.6355 19.3777 27.1333 20.6345 28.0322 21.5833L28.0334 21.5844L28.0232 21.5807ZM22.3427 11.9276L22.2422 11.818C21.4259 10.9652 20.2869 10.6135 19.2164 10.7753L19.2028 10.7771C18.019 10.9498 16.9244 11.4847 16.0681 12.3089L15.9708 12.4043L15.9754 12.3999C15.0265 13.3522 14.2922 14.4976 13.8203 15.7617C13.3483 17.0258 13.1492 18.3803 13.2358 19.7374L13.2368 19.7544C13.2847 21.0624 13.8095 22.3169 14.712 23.2808L14.7142 23.2832C15.0989 23.7223 15.5865 24.059 16.1315 24.262C16.6765 24.465 17.2613 24.5277 17.8313 24.4443L17.8449 24.4424C19.0714 24.2671 20.201 23.7 21.0666 22.8251L21.062 22.8295C22.015 21.8745 22.7532 20.7261 23.229 19.4584C23.7048 18.1908 23.9077 16.8321 23.8245 15.4701L23.8235 15.4531C23.7744 14.1478 23.2505 12.896 22.3505 11.9335L22.3483 11.9311L22.3427 11.9276Z" fill="#416A32"/>
</svg>
